<svg width="50" height="50" viewBox="0 0 50 50" fill="none" xmlns="http://www.w3.org/2000/svg">
<g clip-path="url(#clip0_3820_51172)">
<path d="M1.76904 0H41.7495C43.6305 0.891128 43.5781 1.75145 43.574 3.59549L43.5647 16.3545L43.5712 19.7978C43.5726 20.1861 43.6083 21.1569 43.5526 21.4893C41.8863 22.2696 39.3257 23.1745 37.5543 23.8723L27.4786 27.8196C25.9762 28.4084 23.5713 29.4367 22.0704 29.8808C22.0414 29.8853 22.0124 29.8891 21.9833 29.8923C21.5493 29.9422 20.2357 29.8762 19.7098 29.8754L13.9597 29.8727L6.35879 29.8758C5.38501 29.8769 4.41094 29.8809 3.43723 29.8777C2.57902 29.8749 1.68895 29.9151 0.981655 29.3495C0.447723 28.9779 0.271877 28.5329 0 27.9715V3.54931V1.85848C0.0597827 1.77334 0.0437229 1.77144 0.0804189 1.68024C0.424743 0.824565 0.969292 0.383003 1.76904 0Z" fill="#F0C41A"/>
<path d="M0 3.54932C3.21504 5.67091 6.54517 8.04181 9.73149 10.237L13.1771 12.6116C13.5946 12.8997 14.5272 13.5063 14.8911 13.8148C17.5579 15.4646 19.7022 17.9624 23.0883 17.1304C24.9679 16.6686 26.9489 14.8986 28.6491 13.8203C30.9712 16.3043 33.1712 18.968 35.4892 21.464C35.8463 21.8485 37.3778 23.4931 37.5543 23.8723L27.4786 27.8196C25.9762 28.4084 23.5713 29.4367 22.0704 29.8808C22.0414 29.8853 22.0124 29.8891 21.9833 29.8923C21.5493 29.9422 20.2357 29.8762 19.7098 29.8754L13.9597 29.8727L6.35879 29.8758C5.38501 29.8769 4.41094 29.8809 3.43723 29.8777C2.57902 29.8749 1.68895 29.9151 0.981655 29.3495C0.447723 28.9779 0.271877 28.5329 0 27.9715V3.54932Z" fill="#E57E25"/>
<path d="M0 3.54932C3.21504 5.67091 6.54517 8.04181 9.73149 10.237L13.1771 12.6116C13.5946 12.8997 14.5272 13.5063 14.8911 13.8148C13.9958 14.8855 12.9715 15.989 12.0359 17.0326L7.32285 22.2932L3.34737 26.7317C2.60704 27.5602 1.74775 28.5693 0.981655 29.3495C0.447723 28.9779 0.271877 28.5329 0 27.9715V3.54932Z" fill="#F29C20"/>
<path d="M28.6494 13.8205L38.9172 6.73581L41.8137 4.74056C42.2877 4.41405 43.0896 3.82701 43.5743 3.5957L43.565 16.3547L43.5715 19.798C43.5729 20.1863 43.6085 21.1571 43.5529 21.4895C41.8866 22.2698 39.326 23.1747 37.5546 23.8725C37.3781 23.4933 35.8466 21.8487 35.4895 21.4642C33.1715 18.9682 30.9715 16.3045 28.6494 13.8205Z" fill="#F29C20"/>
<path d="M23.0217 44.2388C24.2988 44.286 24.1303 45.37 23.4029 45.9916C22.6089 46.6701 21.5001 47.9128 20.6015 48.3688C19.8083 48.4584 19.3258 47.3257 20.0528 46.7832C20.8573 46.1829 22.1593 44.5989 23.0217 44.2388Z" fill="#C5EAFF"/>
<path d="M49.9997 19.0527V19.2353C49.7135 19.626 48.9401 21.943 48.7108 22.5404L44.3837 33.8147C44.0801 34.608 42.5806 38.6869 42.2682 39.0791C41.9217 39.06 40.5916 38.6516 40.2036 38.5426L36.6078 37.5653C35.9881 37.3955 35.0773 37.1084 34.4592 36.9884C33.8336 37.9335 32.8071 39.1455 32.0751 40.0596C30.8796 41.5706 29.6668 43.0679 28.4372 44.5512C28.3899 44.631 28.4234 44.5996 28.3216 44.6331C28.1973 44.5248 24.3362 35.0667 23.9117 34.1987C23.6422 34.0374 22.361 33.7314 21.9887 33.6363L18.554 32.7499C17.9047 32.5803 17.0389 32.3785 16.4297 32.148C17.6001 31.5831 19.0932 31.104 20.3124 30.5959C20.9201 30.3426 21.4604 30.2001 22.07 29.8811C23.5709 29.437 25.9758 28.4086 27.4782 27.8199L37.554 23.8725C39.3254 23.1748 41.886 22.2699 43.5523 21.4896C43.7159 21.4705 44.4251 21.1409 44.6536 21.0648C45.8102 20.6796 48.1581 19.5394 49.2423 19.3634C49.3961 19.2713 49.6168 19.2045 49.7907 19.1445L49.9997 19.0527Z" fill="#CDE7FF"/>
<path d="M50 19.0527V19.2353C49.7138 19.626 48.9404 21.943 48.7111 22.5404L44.384 33.8147C44.0804 34.608 42.5809 38.6869 42.2685 39.0791C41.922 39.06 40.5919 38.6516 40.2039 38.5426L36.6081 37.5653C35.9884 37.3955 35.0776 37.1084 34.4595 36.9884C33.2147 36.5831 31.0936 36.0013 29.8281 35.7147C30.2185 35.3228 30.8706 34.8167 31.3179 34.4491L33.7915 32.4113C35.0627 31.3639 49.748 19.3149 49.791 19.1445L50 19.0527Z" fill="#7DD0FB"/>
<path d="M43.5523 21.4894C43.7159 21.4704 44.4251 21.1408 44.6536 21.0646C45.8102 20.6795 48.1581 19.5392 49.2423 19.3633C48.9826 19.6964 35.7796 27.2895 34.3015 28.1518L27.5437 32.0938C26.3852 32.7695 25.0796 33.5713 23.9117 34.1985C23.6422 34.0372 22.361 33.7313 21.9887 33.6361L18.554 32.7497C17.9047 32.5802 17.0389 32.3784 16.4297 32.1479C17.6001 31.583 19.0932 31.1039 20.3124 30.5958C20.9201 30.3425 21.4604 30.1999 22.07 29.8809C23.5709 29.4368 25.9758 28.4085 27.4782 27.8197L37.554 23.8724C39.3254 23.1746 41.886 22.2697 43.5523 21.4894Z" fill="#7DD0FB"/>
<path d="M28.438 44.5508L28.4189 44.529C28.4396 44.3412 28.4163 44.1659 28.447 43.9686C28.8098 41.6381 29.211 39.3129 29.5858 36.9842C29.6494 36.5891 29.7062 36.0897 29.8286 35.7144C31.0941 36.0009 33.2152 36.5827 34.46 36.988C33.8344 37.9331 32.8079 39.1451 32.0759 40.0592C30.8804 41.5702 29.6676 43.0675 28.438 44.5508Z" fill="#34ACEF"/>
<path d="M11.0115 49.9999C10.691 49.7651 10.2961 49.2153 10.6221 48.8398C11.1647 48.2142 11.8876 47.6752 12.5267 47.1447L16.0132 44.2728C17.7682 42.8278 19.4855 41.3397 21.2593 39.9162C22.006 39.3171 22.6869 39.1341 23.0305 40.2568C22.9378 40.4727 22.8529 40.6805 22.6763 40.8384C21.9885 41.4533 21.2491 42.0474 20.539 42.6373L16.3523 46.1113L13.3073 48.6496C12.9022 48.9872 12.0302 49.7509 11.605 49.9999H11.0115Z" fill="#C5EAFF"/>
</g>
<defs>
<clipPath id="clip0_3820_51172">
<rect width="50" height="50" fill="white"/>
</clipPath>
</defs>
</svg>
