<svg width="80" height="80" viewBox="0 0 80 80" fill="none" xmlns="http://www.w3.org/2000/svg">
<path d="M8.68838 33.7563C7.86682 33.7864 5.93649 33.919 5.29747 33.4404C4.74384 32.5205 4.98735 28.2087 5.10099 27.0084C5.17463 26.2304 6.33527 26.2277 6.97206 26.2293C12.2257 26.2423 17.4807 26.2371 22.735 26.2368L55.5403 26.2351L67.3936 26.2345C68.9049 26.2344 73.3519 26.0476 74.4867 26.4043C74.6283 26.4487 74.6996 26.5871 74.761 26.7138C75.1703 27.5586 75.1821 32.2424 74.8569 33.1709C74.7801 33.3902 74.6698 33.4948 74.4622 33.5889C73.7038 33.9326 72.1124 33.8419 71.2812 33.7409C70.9956 37.7288 70.4731 41.8417 70.0981 45.8329C70.0189 46.6753 69.8341 49.1928 69.6448 49.8715C70.0572 50.4216 70.6312 50.7128 71.13 51.161C72.618 52.5009 74.4408 53.6326 75.7049 55.1804C77.1081 56.8984 75.3349 59.3761 73.3652 59.1059C71.7402 58.8831 70.3117 56.8166 69.0057 56.0226C69.0357 56.8446 68.8671 58.2284 68.7859 59.0853L68.2262 64.6193C68.0654 66.1447 67.9751 67.7601 67.7156 69.2771C67.6423 69.7056 67.3514 70.1914 67.0571 70.5067C66.3699 71.2429 65.4881 71.2738 64.5474 71.2787C61.0476 71.297 57.5385 71.2813 54.0387 71.281L33.1764 71.2808L20.8791 71.2815C18.7649 71.2825 16.6363 71.3294 14.5261 71.2375C13.4192 71.1893 12.4198 70.2158 12.2554 69.1343C11.9983 67.4432 11.8906 65.7063 11.7181 64.0022L11.2314 59.2483C11.1508 58.4743 10.9146 56.8064 11.001 56.115C10.5973 56.3451 10.3118 56.6426 9.9569 56.935C8.64932 58.012 8.14151 58.7326 6.48559 59.2733C5.16888 58.974 3.98633 58.4339 3.82024 56.8983C3.65897 55.0811 5.36353 54.1992 6.43083 53.1842C7.56386 52.1067 9.39268 51.0019 10.3683 49.9253C10.1312 49.0549 10.0088 46.878 9.90346 45.8658L8.95596 36.3858C8.9162 35.9577 8.79206 33.9672 8.68838 33.7563Z" fill="#E0E0E0"/>
<path d="M8.68842 33.7563C7.86685 33.7864 5.93652 33.919 5.2975 33.4404C4.74387 32.5205 4.98739 28.2087 5.10103 27.0084C5.17467 26.2304 6.3353 26.2277 6.9721 26.2293C12.2258 26.2423 17.4808 26.2371 22.7351 26.2368L55.5403 26.2351L67.3937 26.2345C68.905 26.2344 73.3519 26.0476 74.4868 26.4043C74.6283 26.4487 74.6996 26.5871 74.761 26.7138C75.1704 27.5586 75.1821 32.2424 74.8569 33.1709C74.7801 33.3902 74.6698 33.4948 74.4622 33.5889C73.7038 33.9326 72.1124 33.8419 71.2812 33.7409L56.8726 33.7492L52.5733 33.7511C52.0482 33.753 50.8416 33.7297 50.4018 33.8094C48.624 32.7949 46.5579 29.2152 44.1292 31.4808C43.4524 32.1122 43.352 32.8144 43.3346 33.6927C42.7328 33.7861 37.2612 33.8028 36.6572 33.6734C36.6421 32.825 36.5137 32.1718 35.8759 31.565C33.7894 29.58 31.9447 32.0165 30.3558 33.2736C30.1745 33.4171 29.8157 33.7633 29.6366 33.8604C28.6358 33.682 25.8315 33.7497 24.6854 33.7491L13.5583 33.7442L10.3451 33.7558C9.8692 33.7597 9.12974 33.8019 8.68842 33.7563Z" fill="#CDCDCD"/>
<path d="M29.6366 33.861C29.8156 33.7639 30.1745 33.4177 30.3558 33.2742C31.9446 32.0171 33.7893 29.5806 35.8759 31.5656C36.5137 32.1724 36.6421 32.8256 36.6572 33.674C36.5332 34.0567 36.41 34.45 36.1428 34.7539C35.1363 35.8985 33.6719 37.0106 32.4914 37.9971L26.1881 43.2667C25.7151 43.6627 24.0967 44.9738 23.7502 45.372C22.94 45.9523 21.9881 46.7988 21.2466 47.4676C20.2267 48.1455 17.8149 50.3053 16.7032 51.2374L13.2407 54.1394C12.5442 54.7242 11.6076 55.4709 11.001 56.1156C10.5973 56.3456 10.3118 56.6432 9.9569 56.9356C8.64932 58.0126 8.14151 58.7332 6.48559 59.2738C5.16888 58.9746 3.98633 58.4345 3.82024 56.8989C3.65897 55.0817 5.36353 54.1998 6.43083 53.1848C7.56386 52.1073 9.39268 51.0024 10.3683 49.9259C10.1312 49.0555 10.0088 46.8786 9.90346 45.8663L8.95596 36.3863C8.9162 35.9583 8.79206 33.9677 8.68838 33.7569C9.12971 33.8024 9.86917 33.7603 10.3451 33.7564L13.5582 33.7448L24.6853 33.7497C25.8314 33.7502 28.6357 33.6826 29.6366 33.861Z" fill="#A3A3A3"/>
<path d="M8.68848 33.7566C9.1298 33.8022 9.86926 33.7601 10.3452 33.7562L13.5583 33.7445L24.6854 33.7494C25.8315 33.75 28.6358 33.6823 29.6367 33.8608L23.5572 38.9638C22.9649 39.4541 22.2918 39.9001 21.7298 40.3828L13.5183 47.3983C12.9863 47.8448 10.8542 49.6858 10.3684 49.9256C10.1313 49.0552 10.0089 46.8784 9.90355 45.8661L8.95605 36.3861C8.91629 35.958 8.79215 33.9675 8.68848 33.7566Z" fill="#E0E0E0"/>
<path d="M43.335 33.6931C43.3524 32.8148 43.4528 32.1126 44.1296 31.4812C46.5583 29.2156 48.6244 32.7953 50.4022 33.8098C50.842 33.7301 52.0486 33.7534 52.5736 33.7515L56.873 33.7496L71.2816 33.7413C70.9961 37.7292 70.4735 41.8421 70.0985 45.8333C70.0193 46.6757 69.8345 49.1932 69.6452 49.8719C70.0576 50.422 70.6316 50.7132 71.1304 51.1614C72.6184 52.5013 74.4412 53.6329 75.7054 55.1807C77.1085 56.8988 75.3353 59.3764 73.3656 59.1063C71.7406 58.8835 70.3121 56.817 69.0061 56.023C68.6074 55.7489 67.7989 54.9298 67.3468 54.5601C65.4439 52.9868 63.5512 51.4012 61.6689 49.8033C60.84 49.1047 59.5972 47.9952 58.7494 47.385C58.0694 46.7838 56.9596 45.7936 56.2402 45.2858C56.0807 45.0868 54.3094 43.6229 54.0243 43.384L47.5547 37.9736C46.2639 36.8951 43.8486 35.2084 43.335 33.6931Z" fill="#A3A3A3"/>
<path d="M50.4019 33.8097C50.8417 33.73 52.0483 33.7533 52.5733 33.7514L56.8727 33.7495L71.2813 33.7412C70.9958 37.7291 70.4732 41.842 70.0982 45.8332C70.019 46.6756 69.8342 49.1931 69.6449 49.8718C69.1142 49.5963 67.9213 48.5489 67.4204 48.1283L63.7733 45.0681C59.7247 41.6688 55.7025 38.2409 51.6288 34.8698C51.2151 34.5274 50.8065 34.1641 50.4019 33.8097Z" fill="#E0E0E0"/>
<path d="M56.2401 45.2852C56.9595 45.793 58.0693 46.7831 58.7493 47.3843L58.742 58.6036L58.7442 61.6325C58.7545 62.7391 59.1379 65.4361 57.0613 64.9118C56.6195 64.8003 56.2974 64.288 56.2784 63.8337C56.1939 61.8046 56.2287 59.752 56.2292 57.7171L56.2401 45.2852Z" fill="white"/>
<path d="M21.2468 47.4666C21.9882 46.7979 22.9402 45.9513 23.7504 45.3711L23.7639 57.7923C23.7645 59.7674 23.7985 61.7595 23.7274 63.73C23.6656 65.442 21.2724 65.4123 21.2546 63.5864C21.238 61.8832 21.2509 60.1699 21.2504 58.4658L21.2468 47.4666Z" fill="white"/>
<path d="M39.6979 40.0037C40.954 39.9518 41.2187 40.6443 41.2315 41.7362C41.2514 43.4357 41.2467 45.133 41.2476 46.8325L41.2507 56.3157C41.2509 58.6618 41.332 61.7682 41.1455 64.155C41.1174 64.5141 40.5935 64.8238 40.2949 64.9959C38.8932 65.0587 38.7363 64.2484 38.7412 63.0168C38.7706 55.6548 38.6245 48.2539 38.809 40.9012C38.8187 40.5154 39.3911 40.1668 39.6979 40.0037Z" fill="white"/>
<path d="M48.4486 40.0051C49.2559 39.9582 49.941 40.307 49.9551 41.199C50.0661 48.2979 49.9728 55.4075 50.0075 62.5089C50.0133 63.7118 50.1832 64.3756 49.0422 64.9977C48.2543 65.028 47.5489 64.6791 47.5359 63.8004C47.4314 56.689 47.5129 49.569 47.49 42.4557C47.486 41.2119 47.2932 40.6511 48.4486 40.0051Z" fill="white"/>
<path d="M30.9516 40.0053C32.3847 39.9301 32.5076 40.8485 32.4966 42.071C32.4311 49.4024 32.6452 56.7892 32.4038 64.1056C32.3905 64.5083 31.857 64.826 31.542 64.9977C30.3102 64.988 29.9967 64.4722 30.0035 63.2161C30.0434 55.7804 29.8634 48.2789 30.0788 40.8556C30.0891 40.5031 30.6752 40.1548 30.9516 40.0053Z" fill="white"/>
<path d="M54.8751 13.6885C55.9727 13.8 56.7132 14.8784 56.1776 15.4825C55.136 16.6572 51.0067 21.1631 49.8188 21.5778C48.6811 21.4973 48.0645 20.3803 48.6087 19.736C49.514 18.6639 53.8418 13.9598 54.8751 13.6885Z" fill="#EC221F"/>
<path d="M39.5308 7.51289C39.7989 7.49199 40.0664 7.47645 40.3325 7.52711C40.6084 7.57968 40.919 7.73075 41.0679 7.97994C41.3532 8.45705 41.416 16.1281 41.1894 16.7967C41.0557 17.1913 40.7281 17.3199 40.3792 17.4867C40.0307 17.5303 38.9833 17.4649 38.925 16.9967C38.5699 14.1492 38.7162 11.0156 38.8397 8.13642C38.8517 7.85478 39.3203 7.6212 39.5308 7.51289Z" fill="#EC221F"/>
<path d="M24.7315 13.6777C24.909 13.6946 25.4091 13.7764 25.5407 13.8855C27.3053 15.3654 28.8838 17.1091 30.5293 18.7259C31.4574 19.6378 31.8995 20.0631 31.1624 21.2276C30.957 21.351 30.6602 21.4712 30.434 21.5698C30.3197 21.5716 30.2008 21.5703 30.0889 21.5432C29.3401 21.3613 24.4905 16.4702 23.899 15.5745C23.7202 15.3036 23.6392 15.0536 23.7113 14.7295C23.8278 14.206 24.3099 13.9357 24.7315 13.6777Z" fill="#EC221F"/>
</svg>
