<svg width="50" height="50" viewBox="0 0 50 50" fill="none" xmlns="http://www.w3.org/2000/svg">
<g clip-path="url(#clip0_3820_51199)">
<path d="M27.0632 11.6863C27.0268 10.5636 27.0234 9.43027 27.0356 8.2645C27.0446 7.40137 26.7053 5.19033 28.1604 5.30298C28.6396 5.34004 29.495 5.66206 29.9723 5.82065L33.081 6.84184C33.5788 7.00381 34.5619 7.33789 35.0563 7.4248L35.1031 7.43271C35.8127 7.57632 37.2777 8.10078 38.008 8.34297L42.3337 9.74526L46.8125 11.1939C47.5603 11.4358 48.3129 11.6699 49.0513 11.9392C49.4497 12.0843 49.7222 12.2228 49.9644 12.586C49.9761 12.6039 49.9878 12.6216 50 12.6392V40.0255V44.2204C49.8481 44.4763 49.6416 44.7916 49.3296 44.841C48.4562 44.9792 47.3007 44.9245 46.4086 44.9237L41.0372 44.9201L32.5521 44.9208C31.0888 44.921 28.892 44.9884 27.5023 44.8304L19.4579 44.8316L17.0625 44.8372C16.1693 44.8392 14.5581 45.0755 14.5532 43.768C14.5493 42.7263 14.3799 41.0472 14.5436 40.0549C14.5149 39.6608 14.5312 39.4523 14.5688 39.0603C13.8457 39.933 13.076 41.2326 12.2921 42.094C11.619 42.7001 10.0658 45.3147 9.00073 44.7472C8.45767 44.4579 7.5585 43.3546 7.13237 42.8452C4.24775 39.3967 1.55475 35.519 0.358993 31.1301C0.216684 30.6083 0.188604 29.9626 0.0138753 29.4628L0 29.4242V26.9653C0.0968911 26.7744 0.233331 25.9483 0.296323 25.6917C0.889575 23.2747 2.63776 21.0394 4.8383 19.8727C7.08931 18.6762 9.7208 18.414 12.1637 19.1426C13.0046 19.3518 13.8047 19.8243 14.5622 20.246C14.4916 19.71 14.4573 15.4503 14.6705 15.1058C14.8131 14.8753 15.0485 14.7164 15.2958 14.6187C16.112 14.2963 17.0875 14.16 17.944 13.947L23.8386 12.4644C24.8346 12.1907 26.0533 11.8854 27.0632 11.6863ZM6.0855 29.5685C7.24868 32.3968 11.3942 32.4092 12.6293 29.6189C13.0301 28.73 13.0574 27.7174 12.7053 26.8081C12.3431 25.8744 11.6617 25.1905 10.7519 24.7869C8.81426 24.13 6.97466 24.8124 6.06035 26.6785C5.72061 27.7271 5.69189 28.5226 6.0855 29.5685Z" fill="#8EBBFF"/>
<path d="M23.8386 12.4641C24.8346 12.1904 26.0533 11.8852 27.0632 11.686L27.0909 33.8567L27.0909 40.6413C27.0906 41.759 27.0652 42.9251 27.1112 44.0419C27.1236 44.3426 27.3906 44.5951 27.5023 44.8301L19.4579 44.8313L17.0625 44.837C16.1693 44.839 14.5581 45.0753 14.5532 43.7678C14.5493 42.726 14.3799 41.047 14.5436 40.0546C14.5149 39.6605 14.5312 39.4521 14.5688 39.06C13.8457 39.9327 13.076 41.2324 12.2921 42.0938C11.619 42.6998 10.0658 45.3145 9.00073 44.747C8.45767 44.4576 7.5585 43.3544 7.13237 42.845C4.24775 39.3964 1.55475 35.5188 0.358993 31.1298C0.216684 30.6081 0.188604 29.9624 0.0138753 29.4626L0 29.424V26.965C0.0968911 26.7742 0.233331 25.9481 0.296323 25.6915C0.889575 23.2744 2.63776 21.0392 4.8383 19.8724C7.08931 18.676 9.7208 18.4137 12.1637 19.1424C13.0046 19.3516 13.8047 19.824 14.5622 20.2458C14.4916 19.7098 14.4573 15.45 14.6705 15.1055C14.8131 14.875 15.0485 14.7162 15.2958 14.6185C16.112 14.296 17.0875 14.1597 17.944 13.9468L23.8386 12.4641ZM6.0855 29.5682C7.24868 32.3965 11.3942 32.409 12.6293 29.6187C13.0301 28.7297 13.0574 27.7171 12.7053 26.8079C12.3431 25.8742 11.6617 25.1903 10.7519 24.7867C8.81426 24.1297 6.97466 24.8122 6.06035 26.6782C5.72061 27.7268 5.69189 28.5223 6.0855 29.5682Z" fill="#2476D3"/>
<path d="M0 26.9652C0.0968911 26.7743 0.233331 25.9482 0.296323 25.6916C0.889575 23.2746 2.63776 21.0393 4.8383 19.8725C7.08931 18.6761 9.7208 18.4139 12.1637 19.1425L12.125 19.1676C11.8755 19.3267 11.5535 19.455 11.2808 19.5748C8.68159 20.7174 6.75024 23.062 6.01831 25.7924C5.94136 26.0796 5.89277 26.4213 6.06035 26.6784C5.72061 27.7269 5.69189 28.5225 6.0855 29.5683C5.77915 30.2865 6.11821 31.2528 6.35059 31.9763C7.48223 35.4994 9.5584 38.6827 11.8202 41.5789C11.9651 41.7644 12.1135 41.9404 12.2921 42.0939C11.619 42.6999 10.0658 45.3146 9.00073 44.7471C8.45767 44.4578 7.5585 43.3545 7.13237 42.8451C4.24775 39.3966 1.55475 35.5189 0.358993 31.13C0.216684 30.6082 0.188604 29.9625 0.0138753 29.4627L0 29.4241V26.9652Z" fill="#FF6E73"/>
<path d="M10.7519 24.7868C11.7245 24.5373 13.3358 25.3097 14.1569 25.7967C15.0988 26.3544 15.935 27.074 16.627 27.9222C17.3262 28.7926 17.7322 29.5804 18.2007 30.5863C18.2467 30.6851 18.3746 30.6988 18.4393 30.7517C17.9263 33.0608 16.9414 35.0657 15.765 37.1023C15.5715 37.4374 14.6347 38.8296 14.5688 39.0601C13.8457 39.9328 13.076 41.2325 12.2921 42.0939C12.1135 41.9404 11.9651 41.7644 11.8202 41.5789C9.5584 38.6827 7.48223 35.4994 6.35059 31.9763C6.11821 31.2528 5.77915 30.2865 6.0855 29.5683C7.24868 32.3967 11.3942 32.4091 12.6293 29.6188C13.0301 28.7299 13.0574 27.7173 12.7053 26.808C12.3431 25.8743 11.6617 25.1904 10.7519 24.7868Z" fill="#FF6E73"/>
<path d="M12.1637 19.1425C13.0046 19.3517 13.8047 19.8242 14.5622 20.2459C15.0031 20.6012 15.5229 21.004 15.925 21.3928C17.4307 22.8484 18.4622 24.8802 18.6855 26.968C18.8038 28.0737 18.7562 29.6668 18.4393 30.7517C18.3746 30.6988 18.2467 30.6851 18.2007 30.5863C17.7322 29.5804 17.3262 28.7926 16.627 27.9222C15.935 27.074 15.0988 26.3544 14.1569 25.7967C13.3358 25.3097 11.7245 24.5373 10.7519 24.7868C8.81426 24.1299 6.97466 24.8123 6.06035 26.6784C5.89277 26.4213 5.94136 26.0796 6.01831 25.7924C6.75024 23.062 8.68159 20.7174 11.2808 19.5748C11.5535 19.455 11.8755 19.3267 12.125 19.1676L12.1637 19.1425Z" fill="#FF6E73"/>
<path d="M40.9634 30.1795L41.0204 30.1874C41.5998 30.1795 43.5891 30.1154 44.0282 30.2343C44.2028 30.282 44.3621 30.3735 44.4913 30.5002C44.699 30.7047 44.8154 30.9843 44.8143 31.2758C44.8136 31.5468 44.7044 31.8062 44.5112 31.9962C44.0493 32.4457 43.1381 32.323 42.5103 32.3256C41.9088 32.2692 41.2145 32.362 40.6173 32.2827C40.1095 32.2899 39.6458 31.8881 39.5823 31.3837C39.5499 31.1158 39.6293 30.8463 39.802 30.6388C40.1303 30.2399 40.5017 30.2169 40.9634 30.1795Z" fill="white"/>
<path d="M40.456 24.4707C41.2807 24.4302 43.6818 24.2849 44.3081 24.6521C44.5469 24.7921 44.7344 25.0153 44.8019 25.2867C44.8644 25.5279 44.8261 25.7842 44.6959 25.9967C44.4776 26.3572 44.3372 26.4565 43.9433 26.5535C43.1371 26.5729 40.6988 26.7222 40.0939 26.4101C39.8593 26.289 39.6705 26.091 39.5951 25.8344C39.5218 25.5847 39.555 25.257 39.6802 25.0287C39.8464 24.7255 40.1367 24.5679 40.456 24.4707Z" fill="white"/>
<path d="M40.3719 18.7656C41.4107 18.6977 42.5337 18.7555 43.5796 18.7441C44.9654 18.7291 45.3317 20.2547 44.0184 20.8277C43.2825 20.9084 40.8944 20.9509 40.1877 20.7237C39.3784 20.4634 39.2427 19.1719 40.3719 18.7656Z" fill="white"/>
<path d="M36.0774 18.7407L36.1361 18.7575C36.5532 18.7456 36.8673 18.7429 37.1984 19.053C37.4014 19.243 37.5162 19.5089 37.5152 19.787C37.5179 20.3284 37.1556 20.6551 36.6942 20.8544C35.9963 20.8394 33.6728 20.9148 33.1453 20.8073C33.022 20.7952 32.7328 20.6813 32.6636 20.5824C31.0542 18.2832 34.8523 18.7675 36.0774 18.7407Z" fill="white"/>
<path d="M33.3431 24.4772C34.3499 24.462 35.576 24.4127 36.5842 24.5068C37.14 24.5587 37.4947 25.0253 37.5032 25.6L37.5035 25.6342C37.5061 25.8266 37.4165 25.9168 37.3143 26.0699C37.0578 26.4542 36.9125 26.4781 36.4772 26.5549C35.6796 26.5746 33.559 26.619 32.8627 26.4778C31.9539 25.735 32.152 24.644 33.3431 24.4772Z" fill="white"/>
<path d="M40.5589 35.9513C41.3333 35.903 42.1578 35.9529 42.9374 35.9272C43.397 35.9121 43.9836 35.9174 44.378 36.176C45.1656 36.6925 44.7943 37.8487 43.8848 38.0016C43.1554 38.0683 40.6136 38.155 40.0689 37.8334C39.8456 37.7016 39.679 37.4985 39.6208 37.2431C39.5629 36.9889 39.6095 36.5976 39.7573 36.3796C39.9367 36.115 40.2603 36.0048 40.5589 35.9513Z" fill="white"/>
<path d="M33.2148 35.9541C33.9734 35.9065 36.4778 35.7875 37.0552 36.1566C37.2634 36.2896 37.4193 36.4895 37.4701 36.7339C37.5411 37.0765 37.4858 37.2832 37.2944 37.5677C37.1116 37.8394 36.9292 37.9386 36.611 38.0007C35.79 38.0655 33.4031 38.1777 32.7605 37.8109C32.5495 37.6904 32.3485 37.5086 32.2851 37.2656C32.2083 36.9711 32.3411 36.6398 32.4949 36.3927C32.6637 36.1216 32.9139 36.021 33.2148 35.9541Z" fill="white"/>
<path d="M33.1289 30.2283C33.8643 30.1867 36.3138 30.1046 37.0247 30.3778C37.3016 30.4842 37.45 30.9488 37.5245 31.236C37.4023 31.7987 37.2668 32.0393 36.7241 32.266C35.9328 32.3125 33.498 32.443 32.8729 32.1525C32.6323 32.0407 32.4252 31.8516 32.3405 31.5947C32.2559 31.3381 32.2971 30.9985 32.4181 30.7593C32.5619 30.4752 32.838 30.3234 33.1289 30.2283Z" fill="white"/>
</g>
<defs>
<clipPath id="clip0_3820_51199">
<rect width="50" height="50" fill="white"/>
</clipPath>
</defs>
</svg>
