<svg width="50" height="50" viewBox="0 0 50 50" fill="none" xmlns="http://www.w3.org/2000/svg">
<path d="M24.6847 16.4757C25.2972 16.4105 26.3408 16.5193 26.9466 16.6298C32.3062 17.6077 35.9487 22.8736 34.8985 28.2573C34.401 30.8905 32.8643 33.2125 30.635 34.6995C28.4073 36.191 25.8239 36.6717 23.2064 36.1509C22.762 36.1162 21.9499 35.8504 21.5461 35.665C20.2647 36.2615 18.9912 37.0235 17.6825 37.5675C17.1268 37.792 16.5293 37.214 16.652 36.6599C16.9263 35.4225 17.0373 33.8477 17.3992 32.6586C16.2111 31.4803 15.2902 28.9305 15.1716 27.2711C14.9849 24.6611 15.7652 21.9916 17.4899 20.0012C19.4713 17.7146 21.7218 16.6984 24.6847 16.4757ZM29.9541 27.0589C30.2261 27.0148 30.453 26.827 30.5472 26.568C30.6414 26.3091 30.5882 26.0194 30.4081 25.8108C30.228 25.6022 29.9492 25.5073 29.6792 25.5627C29.2737 25.646 29.0092 26.0383 29.084 26.4454C29.1588 26.8526 29.5455 27.1252 29.9541 27.0589ZM19.6506 26.2943C19.6467 26.5187 19.7424 26.7333 19.912 26.8802C20.0816 27.0272 20.3077 27.0913 20.5292 27.0554C20.8006 27.0115 21.0269 26.8239 21.1205 26.5654C21.214 26.3068 21.1601 26.0178 20.9795 25.8104C20.7991 25.603 20.5203 25.5096 20.2513 25.5665C19.906 25.6395 19.6568 25.9414 19.6506 26.2943ZM25.266 27.0871C25.8986 26.762 26.0629 26.2934 25.6144 25.7219C25.3707 25.5873 25.2467 25.517 24.963 25.5344C24.5459 25.7745 24.5052 25.8403 24.3156 26.2824C24.4827 26.7758 24.6738 27.098 25.266 27.0871Z" fill="#FF6E73"/>
<path d="M24.2148 3.49409C25.2051 3.37801 26.375 3.47563 27.3608 3.59151C36.2725 4.63892 42.2747 11.1674 43.4717 19.8673C42.2313 19.4522 39.9202 19.6075 38.5578 19.5892L38.5296 19.5886C38.1668 19.5774 38.1531 19.3599 38.0857 19.0123C37.1264 14.0663 33.1008 10.1521 28.2428 9.00037C27.5696 8.8408 26.7789 8.65247 26.086 8.63929C23.503 8.53314 21.4146 8.80872 19.061 9.99637C16.1009 11.5176 13.815 14.0888 12.6508 17.2067C12.3112 18.1066 12.2354 18.7576 11.9616 19.5875C10.0752 19.6045 8.6354 19.4743 6.7373 19.8055C8.04419 10.4796 14.725 4.02082 24.2148 3.49409Z" fill="#8EBBFF"/>
<path d="M8.18958 21.1142C9.03299 21.0605 10.0202 21.0898 10.8756 21.0844C11.5707 21.08 12.847 20.9709 13.3962 21.3668C13.6775 21.942 13.5913 23.9411 13.5913 24.6617L13.5906 29.0578L13.5935 33.1326C13.5939 33.8172 13.6487 35.8542 13.4751 36.4034L13.4538 36.4243L13.3744 36.5026C12.8264 37.0491 9.6408 36.8312 8.70115 36.8273C7.32957 36.8006 6.08084 36.3953 5.02703 35.4989C3.91794 34.5685 3.23491 33.2271 3.13487 31.7828C3.07149 30.9457 3.10954 29.7508 3.10827 28.8763C3.10502 26.6555 2.86881 24.7315 4.43143 22.9263C5.39451 21.8137 6.73479 21.2126 8.18958 21.1142Z" fill="#8EBBFF"/>
<path d="M37.343 21.1137C38.3801 21.0526 39.5455 21.1571 40.5434 21.0864C43.3485 20.8874 45.8928 22.2142 46.7075 25.0288C46.997 26.3805 46.8692 27.8409 46.889 29.2244C46.9008 30.0468 46.9376 31.1887 46.852 31.9839C46.7096 33.3745 46.0214 34.6519 44.9384 35.5357C44.4653 35.9117 43.986 36.2063 43.4235 36.4306C43.0759 36.5693 42.7115 36.6903 42.34 36.7429C41.4805 36.8644 37.6905 36.9716 37.0219 36.6803C36.8514 36.606 36.7481 36.4303 36.6851 36.2612C36.5167 35.8088 36.6236 30.6639 36.6235 29.8437C36.6232 27.2695 36.5367 24.6636 36.6344 22.092C36.6411 21.9155 36.6432 21.733 36.7205 21.5705C36.7249 21.5615 36.7294 21.5525 36.7338 21.5434C36.754 21.5016 36.7738 21.4596 36.7973 21.4195C36.9295 21.1943 37.1046 21.1728 37.343 21.1137Z" fill="#8EBBFF"/>
<path d="M41.6699 38.31C41.7318 38.2916 41.722 38.3013 41.7946 38.314C41.8618 38.4686 41.7909 39.2306 41.7663 39.4434C41.5901 40.9653 40.7941 42.4095 39.6119 43.3687C37.7267 44.8982 35.9645 44.8311 33.6964 44.7983C32.8956 44.7867 31.9167 44.839 31.1282 44.7535C31.099 44.8503 31.0653 44.9458 31.0272 45.0395C30.6161 46.0408 29.7961 46.5414 28.7274 46.5499C26.3008 46.5652 23.8672 46.5796 21.4408 46.5432C20.373 46.5272 19.5653 45.9984 19.1647 45.0021C18.8441 44.2124 18.9514 43.1485 19.3961 42.4282C20.0716 41.3339 21.3013 41.388 22.4156 41.3998C24.3642 41.4203 26.3012 41.407 28.2489 41.4007C28.9093 41.3986 29.6225 41.4291 30.1938 41.8053C30.6837 42.1333 31.0488 42.636 31.1672 43.2151C31.8311 43.1193 32.7471 43.1807 33.4369 43.1687C35.2939 43.1363 37.031 43.4124 38.5596 42.0917C39.8435 40.9826 40.0718 39.9572 40.2012 38.3463C40.5902 38.3094 41.2598 38.3179 41.6699 38.31Z" fill="#8EBBFF"/>
</svg>
